name ./resultDataOpenSim/trcMotMarkerGrf/sub09/grf-01-02.mot
datacolumns 19
datarows 22
range 1.48400000 1.56800000
endheader

                time	     ground_force_vx	     ground_force_vy	     ground_force_vz	     ground_force_px	     ground_force_py	     ground_force_pz	   l_ground_force_vx	   l_ground_force_vy	   l_ground_force_vz	   l_ground_force_px	   l_ground_force_py	   l_ground_force_pz	     ground_torque_x	     ground_torque_y	     ground_torque_z	   l_ground_torque_x	   l_ground_torque_y	   l_ground_torque_z	
          1.48400000	        -39.05178675	        449.75630659	        -11.61184201	          0.96636702	          0.00000000	          0.14414172	          0.00000000	          0.00000000	          0.00000000	          0.00000000	          0.00000000	          0.00000000	          0.00000000	          0.44897768	          0.00000000	          0.00000000	          0.00000000	          0.00000000	
          1.48800000	        -40.48305450	        446.61713816	        -14.60852577	          0.96750808	          0.00000000	          0.14427460	          0.00000000	          0.00000000	          0.00000000	          0.00000000	          0.00000000	          0.00000000	          0.00000000	          0.57326489	          0.00000000	          0.00000000	          0.00000000	          0.00000000	
          1.49200000	        -41.04978766	        443.90338290	        -17.58041285	          0.96843641	          0.00000000	          0.14444845	          0.00000000	          0.00000000	          0.00000000	          0.00000000	          0.00000000	          0.00000000	          0.00000000	          0.63875344	          0.00000000	          0.00000000	          0.00000000	          0.00000000	
          1.49600000	        -40.23581527	        441.58794708	        -19.90548530	          0.96906631	          0.00000000	          0.14461171	          0.00000000	          0.00000000	          0.00000000	          0.00000000	          0.00000000	          0.00000000	          0.00000000	          0.64273596	          0.00000000	          0.00000000	          0.00000000	          0.00000000	
          1.50000000	        -37.94958631	        439.62447203	        -21.14537903	          0.96938953	          0.00000000	          0.14472125	          0.00000000	          0.00000000	          0.00000000	          0.00000000	          0.00000000	          0.00000000	          0.00000000	          0.59842041	          0.00000000	          0.00000000	          0.00000000	          0.00000000	
          1.50400000	        -34.51875254	        437.93339624	        -21.11735156	          0.96947867	          0.00000000	          0.14477187	          0.00000000	          0.00000000	          0.00000000	          0.00000000	          0.00000000	          0.00000000	          0.00000000	          0.53131574	          0.00000000	          0.00000000	          0.00000000	          0.00000000	
          1.50800000	        -30.58219185	        436.45007726	        -19.90099888	          0.96946399	          0.00000000	          0.14477256	          0.00000000	          0.00000000	          0.00000000	          0.00000000	          0.00000000	          0.00000000	          0.00000000	          0.47495328	          0.00000000	          0.00000000	          0.00000000	          0.00000000	
          1.51200000	        -26.91560470	        435.17589257	        -17.79025224	          0.96947106	          0.00000000	          0.14472812	          0.00000000	          0.00000000	          0.00000000	          0.00000000	          0.00000000	          0.00000000	          0.00000000	          0.46544290	          0.00000000	          0.00000000	          0.00000000	          0.00000000	
          1.51600000	        -24.22812340	        434.17706464	        -15.21155451	          0.96962024	          0.00000000	          0.14464427	          0.00000000	          0.00000000	          0.00000000	          0.00000000	          0.00000000	          0.00000000	          0.00000000	          0.53346480	          0.00000000	          0.00000000	          0.00000000	          0.00000000	
          1.52000000	        -22.96621277	        433.53680145	        -12.63745081	          0.96997466	          0.00000000	          0.14451870	          0.00000000	          0.00000000	          0.00000000	          0.00000000	          0.00000000	          0.00000000	          0.00000000	          0.69436677	          0.00000000	          0.00000000	          0.00000000	          0.00000000	
          1.52400000	        -23.17837248	        433.29999756	        -10.51329403	          0.97054019	          0.00000000	          0.14436940	          0.00000000	          0.00000000	          0.00000000	          0.00000000	          0.00000000	          0.00000000	          0.00000000	          0.94025454	          0.00000000	          0.00000000	          0.00000000	          0.00000000	
          1.52800000	        -24.49394348	        433.45833273	         -9.19427386	          0.97125525	          0.00000000	          0.14422691	          0.00000000	          0.00000000	          0.00000000	          0.00000000	          0.00000000	          0.00000000	          0.00000000	          1.23906713	          0.00000000	          0.00000000	          0.00000000	          0.00000000	
          1.53200000	        -26.22945924	        433.98174627	         -8.88762267	          0.97200895	          0.00000000	          0.14412369	          0.00000000	          0.00000000	          0.00000000	          0.00000000	          0.00000000	          0.00000000	          0.00000000	          1.54299735	          0.00000000	          0.00000000	          0.00000000	          0.00000000	
          1.53600000	        -27.58800950	        434.85631058	         -9.60951483	          0.97265197	          0.00000000	          0.14407111	          0.00000000	          0.00000000	          0.00000000	          0.00000000	          0.00000000	          0.00000000	          0.00000000	          1.80370885	          0.00000000	          0.00000000	          0.00000000	          0.00000000	
          1.54000000	        -27.88615568	        436.09214660	        -11.17724709	          0.97304854	          0.00000000	          0.14406609	          0.00000000	          0.00000000	          0.00000000	          0.00000000	          0.00000000	          0.00000000	          0.00000000	          1.98794308	          0.00000000	          0.00000000	          0.00000000	          0.00000000	
          1.54400000	        -26.73641628	        437.70613583	        -13.24926649	          0.97312821	          0.00000000	          0.14410793	          0.00000000	          0.00000000	          0.00000000	          0.00000000	          0.00000000	          0.00000000	          0.00000000	          2.08694121	          0.00000000	          0.00000000	          0.00000000	          0.00000000	
          1.54800000	        -24.13101757	        439.71403206	        -15.40766050	          0.97289991	          0.00000000	          0.14419369	          0.00000000	          0.00000000	          0.00000000	          0.00000000	          0.00000000	          0.00000000	          0.00000000	          2.11665540	          0.00000000	          0.00000000	          0.00000000	          0.00000000	
          1.55200000	        -20.41316574	        442.14190404	        -17.25849028	          0.97244108	          0.00000000	          0.14431181	          0.00000000	          0.00000000	          0.00000000	          0.00000000	          0.00000000	          0.00000000	          0.00000000	          2.11046244	          0.00000000	          0.00000000	          0.00000000	          0.00000000	
          1.55600000	        -16.15861982	        445.03580191	        -18.51241267	          0.97186588	          0.00000000	          0.14443723	          0.00000000	          0.00000000	          0.00000000	          0.00000000	          0.00000000	          0.00000000	          0.00000000	          2.10888859	          0.00000000	          0.00000000	          0.00000000	          0.00000000	
          1.56000000	        -12.00452279	        448.45234133	        -19.02498328	          0.97128964	          0.00000000	          0.14454097	          0.00000000	          0.00000000	          0.00000000	          0.00000000	          0.00000000	          0.00000000	          0.00000000	          2.15034194	          0.00000000	          0.00000000	          0.00000000	          0.00000000	
          1.56400000	         -8.47409762	        452.44022090	        -18.80045603	          0.97080127	          0.00000000	          0.14460840	          0.00000000	          0.00000000	          0.00000000	          0.00000000	          0.00000000	          0.00000000	          0.00000000	          2.26428804	          0.00000000	          0.00000000	          0.00000000	          0.00000000	
          1.56800000	         -5.84663105	        457.03772553	        -17.96730952	          0.97043598	          0.00000000	          0.14463538	          0.00000000	          0.00000000	          0.00000000	          0.00000000	          0.00000000	          0.00000000	          0.00000000	          2.46623837	          0.00000000	          0.00000000	          0.00000000	          0.00000000	
